#!OML:ASF Y:\EmotionMaleHayes\Project 1\Capture day 1\Session 1\Male1.ASF
:FULLY-SPECIFIED
:DEGREES
388
root 28.3554 18.2659 -5.46733 320.843 60.4394 -35.2545
lowerback 21.1472 3.62745 -3.92088
upperback 3.55919 3.90457 -1.77487
thorax -8.04035 2.03228 -0.790808
lowerneck -24.7592 3.74028 -0.163876
upperneck 18.8588 5.8392 -2.40189
head 10.1563 2.37623 0.087084
rclavicle 2.3059e-014 2.54444e-014
rhumerus -32.4333 42.317 -102.526
rradius 69.0057
rwrist -2.78635
rhand -14.4305 -22.3428
rfingers 7.12502
rthumb 11.714 -51.9953
lclavicle 2.3059e-014 2.54444e-014
lhumerus -22.9257 14.4816 21.9804
lradius 86.7345
lwrist 22.4073
lhand -40.6545 -49.0762
lfingers 7.12502
lthumb -13.5987 -19.5403
rfemur -8.75168 -14.7174 -5.73764
rtibia 7.83493
rfoot -26.9102 -24.1621
rtoes 28.8058
lfemur 7.21705 9.44269 -5.44277
ltibia 20.7599
lfoot -1.96348 -1.62949
ltoes 5.92238
389
root 28.4483 18.4126 -5.51954 320.361 60.9704 -35.8408
lowerback 21.0102 3.54545 -4.17954
upperback 3.60967 3.73983 -1.9466
thorax -7.91206 1.95956 -0.774566
lowerneck -25.0686 3.71239 -0.200758
upperneck 19.1618 5.79038 -2.23844
head 10.3126 2.3613 0.151851
rclavicle 3.73715e-014 -1.59028e-014
rhumerus -32.8759 41.7351 -102.221
rradius 67.6944
rwrist -2.96196
rhand -14.5177 -21.5345
rfingers 7.12502
rthumb 11.6298 -51.1918
lclavicle 3.73715e-014 -1.59028e-014
lhumerus -23.1703 13.6107 23.6587
lradius 86.4155
lwrist 22.1472
lhand -41.12 -49.3252
lfingers 7.12502
lthumb -14.0473 -19.8199
rfemur -8.79491 -15.2944 -5.90455
rtibia 7.78205
rfoot -24.879 -24.6801
rtoes 24.7174
lfemur 7.65677 9.82383 -5.05156
ltibia 19.7938
lfoot 0.43076 -2.09383
ltoes 6.58173
390
root 28.5391 18.5533 -5.57091 319.261 61.3535 -37.1016
lowerback 20.9571 3.43487 -4.07336
upperback 3.73169 3.62655 -2.03243
thorax -7.73504 1.90336 -0.886916
lowerneck -25.547 3.71603 -0.184373
upperneck 19.4436 5.78927 -2.17492
head 10.4979 2.35761 0.18309
rclavicle 1.74931e-014 -6.36111e-015
rhumerus -33.1251 40.9446 -101.687
rradius 66.4755
rwrist -3.04866
rhand -14.3946 -20.9666
rfingers 7.12502
rthumb 11.7486 -50.6171
lclavicle 1.74931e-014 -6.36111e-015
lhumerus -23.2231 12.7459 25.4612
lradius 85.98
lwrist 22.0546
lhand -41.5379 -48.922
lfingers 7.12502
lthumb -14.4499 -19.445
rfemur -8.5387 -14.4006 -5.84288
rtibia 7.57512
rfoot -25.5798 -24.4139
rtoes 26.8938
lfemur 7.93243 10.1077 -4.19152
ltibia 19.2174
lfoot 2.00697 -2.66823
ltoes 3.24877
391
root 28.6234 18.6857 -5.62371 317.948 61.8009 -38.6456
lowerback 21.0319 3.3761 -3.90623
upperback 3.59271 3.57552 -2.00686
thorax -7.91848 1.87477 -0.949992
lowerneck -24.853 3.63376 -0.785432
upperneck 19.2283 5.73106 -1.57415
head 10.2556 2.37647 0.468687
rclavicle 5.00937e-014 -3.49861e-014
rhumerus -34.3667 40.1503 -101.538
rradius 65.7928
rwrist -3.50062
rhand -14.7132 -22.3336
rfingers 7.12502
rthumb 11.4414 -52.0014
lclavicle 5.00937e-014 -3.49861e-014
lhumerus -23.5214 11.4267 27.566
lradius 85.5816
lwrist 22.1736
lhand -41.8262 -47.8418
lfingers 7.12502
lthumb -14.7278 -18.385
rfemur -8.37828 -13.8424 -5.73444
rtibia 7.37789
rfoot -25.2166 -24.7209
rtoes 25.5517
lfemur 7.93193 10.266 -3.31064
ltibia 18.938
lfoot 3.21095 -3.14728
ltoes -2.68905
392
root 28.7108 18.8062 -5.67986 316.525 62.3452 -40.3406
lowerback 21.0731 3.22555 -3.83596
upperback 3.59996 3.39303 -2.02624
thorax -7.92403 1.78626 -0.961927
lowerneck -25.2031 3.64204 -0.582835
upperneck 19.5249 5.74971 -1.82264
head 10.4411 2.35835 0.361364
rclavicle -1.27222e-014 -2.8625e-014
rhumerus -34.9801 39.4686 -101.016
rradius 64.8144
rwrist -3.92564
rhand -14.9433 -22.4024
rfingers 7.12502
rthumb 11.2194 -52.0824
lclavicle -1.27222e-014 -2.8625e-014
lhumerus -23.5964 10.6114 29.5715
lradius 84.8794
lwrist 22.5222
lhand -41.5824 -46.237
lfingers 7.12502
lthumb -14.4928 -16.7632
rfemur -8.28977 -13.7309 -5.72669
rtibia 7.31055
rfoot -24.429 -25.0634
rtoes 23.2953
lfemur 7.77223 10.319 -2.60799
ltibia 18.7826
lfoot 3.8702 -3.22651
ltoes -8.80743
393
root 28.8023 18.9121 -5.73973 315.004 62.9299 -42.13
lowerback 21.0469 3.09983 -3.67264
upperback 3.67131 3.27257 -2.046
thorax -7.81979 1.72579 -1.03743
lowerneck -25.3225 3.53604 -0.915977
upperneck 19.4064 5.64542 -1.52789
head 10.3977 2.32353 0.503452
rclavicle 2.78299e-014 8.26944e-014
rhumerus -35.4539 38.6121 -100.204
rradius 63.9593
rwrist -4.6737
rhand -15.2788 -22.2824
rfingers 7.12502
rthumb 10.8958 -51.9797
lclavicle 2.78299e-014 8.26944e-014
lhumerus -23.3399 9.93793 31.7368
lradius 83.9778
lwrist 22.9884
lhand -40.9977 -43.9459
lfingers 7.12502
lthumb -13.9294 -14.4325
rfemur -8.16848 -13.6484 -5.80324
rtibia 7.34247
rfoot -24.0597 -25.2432
rtoes 22.6264
lfemur 7.53801 10.2982 -2.07159
ltibia 18.8036
lfoot 3.78016 -3.154
ltoes -14.3274
394
root 28.8893 19.0056 -5.79762 313.754 63.5571 -43.6678
lowerback 20.9857 3.03385 -3.79372
upperback 3.54172 3.15639 -2.02084
thorax -7.9356 1.67289 -0.911688
lowerneck -25.3618 3.27226 -1.1126
upperneck 19.6793 5.32381 -1.35252
head 10.4925 2.17889 0.5507
rclavicle 2.14687e-014 2.54444e-014
rhumerus -36.5171 37.6534 -99.5837
rradius 63.2203
rwrist -5.04269
rhand -15.3242 -22.3202
rfingers 7.12502
rthumb 10.852 -52.0198
lclavicle 2.14687e-014 2.54444e-014
lhumerus -23.4361 9.06564 33.8713
lradius 83.0008
lwrist 23.5945
lhand -40.6016 -41.4221
lfingers 7.12502
lthumb -13.5476 -11.8828
rfemur -8.10989 -13.2709 -6.05762
rtibia 7.27595
rfoot -24.0918 -25.4068
rtoes 23.4894
lfemur 7.12226 10.2544 -1.78752
ltibia 19.2138
lfoot 2.99151 -2.95853
ltoes -16.1171
395
root 28.9733 19.0836 -5.85397 312.177 63.9048 -45.5317
lowerback 21.0069 3.00071 -3.65495
upperback 3.59665 3.15527 -1.93533
thorax -7.88441 1.67065 -0.895831
lowerneck -25.8532 3.16853 -1.32931
upperneck 19.8866 5.21453 -1.10974
head 10.6414 2.13361 0.666102
rclavicle 2.54444e-014 -4.77083e-014
rhumerus -37.0477 36.6772 -98.5208
rradius 62.5645
rwrist -5.27046
rhand -15.1772 -22.6691
rfingers 7.12502
rthumb 10.9939 -52.3612
lclavicle 2.54444e-014 -4.77083e-014
lhumerus -23.2126 8.57864 36.1049
lradius 81.9499
lwrist 24.3184
lhand -40.007 -38.6487
lfingers 7.12502
lthumb -12.9745 -9.07215
rfemur -8.07566 -12.7384 -5.96984
rtibia 7.17649
rfoot -24.1286 -25.6437
rtoes 23.8775
lfemur 6.62397 10.2375 -1.18114
ltibia 20.0722
lfoot 1.73425 -2.51193
ltoes -15.3496
396
root 29.0598 19.1449 -5.91161 310.334 64.0152 -47.5986
lowerback 21.0516 2.94716 -3.32247
upperback 3.46169 3.15747 -1.81007
thorax -8.04693 1.66316 -0.956065
lowerneck -25.8862 3.01658 -1.55866
upperneck 20.2552 4.95815 -0.533502
head 10.7587 2.06784 0.875013
rclavicle 3.02153e-014 1.90833e-014
rhumerus -38.1612 35.8393 -97.806
rradius 62.0209
rwrist -5.6845
rhand -15.0006 -22.962
rfingers 7.12502
rthumb 11.1642 -52.645
lclavicle 3.02153e-014 1.90833e-014
lhumerus -23.4069 7.69664 38.1725
lradius 80.9877
lwrist 25.7094
lhand -39.0612 -36.3452
lfingers 7.12502
lthumb -12.0626 -6.7129
rfemur -8.03271 -12.0015 -5.59812
rtibia 7.18322
rfoot -24.2022 -26.0498
rtoes 23.6025
lfemur 6.19632 10.2186 -0.325353
ltibia 21.0735
lfoot 0.213099 -1.69245
ltoes -15.6859
397
root 29.1567 19.1963 -5.9697 307.849 64.7708 -50.4045
lowerback 21.057 2.72185 -3.15068
upperback 3.6082 2.91935 -1.74549
thorax -7.88101 1.54795 -0.911663
lowerneck -26.3134 2.85 -1.63478
upperneck 20.0781 4.75432 -0.536618
head 10.769 1.96669 0.857086
rclavicle 9.54166e-015 4.77083e-014
rhumerus -38.5138 34.9927 -96.4928
rradius 61.4038
rwrist -6.12306
rhand -15.0064 -22.9567
rfingers 7.12502
rthumb 11.1585 -52.64
lclavicle 9.54166e-015 4.77083e-014
lhumerus -22.903 7.10463 40.4432
lradius 79.6693
lwrist 27.6978
lhand -38.1308 -34.2218
lfingers 7.12502
lthumb -11.1655 -4.53891
rfemur -7.46136 -11.3411 -5.8542
rtibia 6.88121
rfoot -24.8472 -26.707
rtoes 24.7452
lfemur 5.42021 9.69444 -0.000166732
ltibia 22.1019
lfoot -1.43467 -0.684998
ltoes -18.2007
398
root 29.2459 19.2276 -6.02914 306.347 65.1299 -52.3303
lowerback 20.7894 2.6598 -3.17709
upperback 3.50897 2.84543 -1.63843
thorax -7.85338 1.51276 -0.750532
lowerneck -25.7701 2.64547 -1.78425
upperneck 19.7876 4.46961 -0.390121
head 10.5601 1.85516 0.874563
rclavicle 1.59028e-015 9.54166e-015
rhumerus -39.4337 34.2516 -95.5058
rradius 60.7516
rwrist -6.40334
rhand -15.3081 -22.7398
rfingers 7.12502
rthumb 10.8676 -52.4386
lclavicle 1.59028e-015 9.54166e-015
lhumerus -22.9452 6.454 42.5037
lradius 78.4702
lwrist 29.451
lhand -37.1209 -30.9647
lfingers 7.12502
lthumb -10.1913 -1.23155
rfemur -7.64398 -10.9321 -5.94455
rtibia 7.01371
rfoot -25.4538 -26.7567
rtoes 26.4111
lfemur 4.75475 9.67237 0.397704
ltibia 22.8611
lfoot -2.9721 0.626366
ltoes -20.9351
399
root 29.3296 19.2462 -6.08757 303.945 65.1089 -55.1197
lowerback 20.6295 2.5583 -2.62624
upperback 3.68872 2.86922 -1.42311
thorax -7.55771 1.51466 -0.82138
lowerneck -26.3749 2.31736 -1.9687
upperneck 19.8084 4.06455 -0.266581
head 10.6715 1.66594 0.892432
rclavicle 1.90833e-014 7.31528e-014
rhumerus -39.5196 33.4488 -93.9816
rradius 59.9452
rwrist -6.6325
rhand -15.3345 -22.7333
rfingers 7.12502
rthumb 10.8421 -52.4335
lclavicle 1.90833e-014 7.31528e-014
lhumerus -22.403 6.27064 44.6287
lradius 77.1088
lwrist 30.3389
lhand -35.7776 -27.4063
lfingers 7.12502
lthumb -8.89523 2.3862
rfemur -7.64681 -10.3524 -5.435
rtibia 6.99039
rfoot -25.8461 -27.1135
rtoes 27.2803
lfemur 4.26473 9.69434 1.50626
ltibia 23.406
lfoot -4.1365 1.8404
ltoes -21.9368
400
root 29.4114 19.2479 -6.14575 301.302 64.9259 -58.1202
lowerback 20.5372 2.3386 -2.09872
upperback 3.49398 2.70625 -1.15785
thorax -7.71008 1.42253 -0.791525
lowerneck -25.4432 2.38532 -1.68627
upperneck 19.4223 4.04422 -0.357212
head 10.3738 1.68126 0.792485
rclavicle -7.15625e-015 1.59028e-014
rhumerus -40.6373 32.7894 -93.1287
rradius 59.2391
rwrist -6.59036
rhand -14.9896 -23.0326
rfingers 7.12502
rthumb 11.1748 -52.7151
lclavicle -7.15625e-015 1.59028e-014
lhumerus -22.6968 5.88199 46.2482
lradius 75.5714
lwrist 30.8264
lhand -34.0719 -24.5509
lfingers 7.12502
lthumb -7.24894 5.30492
rfemur -7.6127 -9.86267 -4.72934
rtibia 6.89408
rfoot -25.726 -27.7373
rtoes 26.7766
lfemur 3.83869 9.70187 2.80882
ltibia 23.7945
lfoot -5.34579 2.76817
ltoes -21.6963
